<svg id="Layer_1" data-name="Layer 1" xmlns="http://www.w3.org/2000/svg" viewBox="0 0 206.8 44.66"><defs><style>.cls-1{fill:#fff;}.cls-2{fill:#515151;}.cls-3{font-size:14px;fill:#606161;font-family:AdellePE, Adelle PE;}.cls-4{letter-spacing:-0.09em;}.cls-5{letter-spacing:-0.09em;}.cls-6{letter-spacing:-0.08em;}.cls-7{letter-spacing:-0.02em;}.cls-8{letter-spacing:-0.02em;}.cls-9{letter-spacing:-0.01em;}</style></defs><title>scroll</title><path class="cls-1" d="M39.27,0h5.39V44.66H0Q0,22.33,0,0H37.45a3,3,0,0,1-.38.07,32.82,32.82,0,0,0-7.82,1.5A24.1,24.1,0,0,0,18.59,8.15c-3.72,4.07-5.4,9-5.9,14.38-.07.79-.11,1.58-.16,2.4H3.3L17.88,44.18,32.47,24.92H23.64c-.26,0-.43,0-.42-.36a35.61,35.61,0,0,1,1.37-9.2A19.47,19.47,0,0,1,31.57,5,16.27,16.27,0,0,1,39,1.81a.4.4,0,0,0,.25-.29C39.3,1,39.28.51,39.27,0Z"/><path class="cls-2" d="M21.47,26.69H28.9l-11,14.55-11-14.54h7.47c0-.27,0-.5,0-.72a28.23,28.23,0,0,1,1.41-9.44A20.07,20.07,0,0,1,27,4.37c1.44-.65,3-1.13,4.45-1.68l.1.17L31.36,3a20.64,20.64,0,0,0-7.81,10.1,32,32,0,0,0-2,9.78c-.07,1.16-.07,2.31-.1,3.47C21.45,26.42,21.46,26.53,21.47,26.69Z"/><text class="cls-3" transform="translate(37.39 12.59)">A<tspan class="cls-4" x="9.98" y="0">L</tspan><tspan class="cls-5" x="17.36" y="0">W</tspan><tspan class="cls-6" x="30.06" y="0">A</tspan><tspan class="cls-7" x="38.93" y="0">Y</tspan><tspan x="47.31" y="0">S BE SC</tspan><tspan class="cls-8" x="97.76" y="0">R</tspan><tspan x="107" y="0">OLLI</tspan><tspan class="cls-9" x="140.56" y="0">N</tspan><tspan x="152.07" y="0">G</tspan></text></svg>