<svg id="Layer_1" data-name="Layer 1" xmlns="http://www.w3.org/2000/svg" viewBox="0 0 1000 240"><defs><style>.cls-1{fill:#eff037;}</style></defs><title>allan-header</title><path class="cls-1" d="M91.85,3.35h7.94l89.82,189.42H141.34l-9.17-18.94H59.77l-8.86,18.94H2.64ZM42.66,184.21,94,73.62h4.28L149,184.21h24.75L95.82,19.85,18.53,184.21Zm-4-36.36h16.8l-.92,1.53H37.77Zm2.75-6.11h16.8l-.92,1.53H40.83Zm3.06-6.11H61l-.92,1.53H43.58Zm2.75-6.11h16.5l-.92,1.53H46.63Zm3.06-6.11H66.8l-.92,1.53H49.38ZM53,117.31h16.5l-.92,1.53H52.44Zm2.75-6.11H72.3l-.92,1.53H55.19Zm3.06-6.11h16.5l-.92,1.53H57.94ZM61.6,99H78.1l-.92,1.53H61Zm66.91,66.6-7-15.28H69.85l-6.72,15.28ZM64.66,92.86h16.5l-.92,1.53H63.74Zm2.75-6.11h16.5L83,88.28H66.8Zm3.06-6.11H87L86,82.17H69.55Zm0,79.43H120l.61,1.53H69.85Zm2.75-85.54h16.5l-.92,1.53H72.6Zm0,79.43h44.3l.92,1.53H72.6Zm43.38-12.53L95.82,95.31h-.61L74.13,141.44Zm-40.33-73h38.8L116,70H75.35ZM79,62.31h33.3l.61,1.53H78.41Zm2.75-6.11h27.5l.92,1.53h-29Zm3.06-6.11h21.69l.61,1.53H83.91ZM87.57,44h15.89l.92,1.53H87Zm3.06-6.11h10.08l.61,1.53H89.71Zm2.75-6.11h4.28l.92,1.53h-5.8Zm2.44-5.19.61,1.22H95.21Zm6.42,48h15.89l.61,1.53H103.15ZM105,80.64h15.89l.92,1.53H105.9Zm2.75,6.11h16.19l.61,1.53H108.65Zm2.75,6.11h16.19l.92,1.53H111.4ZM113.24,99h16.5l.61,1.53H114.15Zm2.75,6.11h16.5l.92,1.53H116.9Zm2.75,6.11h16.8l.61,1.53h-16.5Zm2.75,6.11h16.8l.92,1.53H122.4Zm19.86,6.11.61,1.53h-16.8l-.92-1.53Zm2.75,6.11.92,1.53H127.59l-.92-1.53Zm3.06,6.11.61,1.53H130.34l-.92-1.53Zm2.75,6.11.92,1.53H133.09l-.92-1.53Zm3.06,6.11.61,1.53h-18l-.92-1.53Z"/><path class="cls-1" d="M192.35,9.46h44.91V154.27H317v38.5H192.35ZM305.7,184.21V162.83H226V18h-22.3v166.2ZM209.15,179h93.49v1.53h-95Zm6.42-6.11h87.07v1.53H214ZM222,166.8h80.66v1.53H220.15Z"/><path class="cls-1" d="M324.17,9.46h44.91V154.27h79.74v38.5H324.17ZM437.52,184.21V162.83H357.78V18h-22.3v166.2ZM341,179h93.49v1.53h-95Zm6.42-6.11h87.07v1.53h-88.6Zm6.42-6.11h80.66v1.53H352Z"/><path class="cls-1" d="M540,3.35H548l87.52,189.42H587.22l-9.17-18.94H505.65l-8.86,18.94H448.52ZM488.54,184.21l51.33-110.6h4.28l50.72,110.6h24.75L541.7,19.85,464.4,184.21Zm-4-36.36h16.8l-.92,1.53h-16.8Zm2.75-6.11h16.8l-.92,1.53h-16.5Zm3.06-6.11h16.5l-.92,1.53h-16.5Zm2.75-6.11h16.5l-.92,1.53H492.51Zm3.06-6.11h16.5l-.92,1.53h-16.5Zm2.75-6.11h16.5l-.92,1.53H498.32Zm2.75-6.11h16.5l-.92,1.53H501.07Zm3.06-6.11h16.5l-.92,1.53h-16.5ZM507.48,99H524l-.92,1.53H506.87Zm66.91,66.6-7-15.28H515.73L509,165.58ZM510.54,92.86H527l-.92,1.53h-16.5Zm2.75-6.11h16.5l-.92,1.53H512.68Zm3.06-6.11h16.5l-.92,1.53h-16.5Zm0,79.43h49.49l.61,1.53H515.73Zm2.75-85.54h16.5l-.92,1.53H518.48Zm0,79.43h44.3l.92,1.53H518.48Zm43.38-12.53L541.7,95.31h-.61L520,141.44Zm-40.33-73h38.8l.92,1.53H521.23Zm2.75-6.11h33.3l.61,1.53H524.29Zm2.75-6.11h27.5l.92,1.53H527Zm3.06-6.11h21.69l.61,1.53H529.79ZM533.45,44h15.89l.92,1.53H532.84Zm3.06-6.11h10.08l.61,1.53H535.59Zm2.75-6.11h4.28l.92,1.53h-5.8Zm2.44-5.19.61,1.22h-1.22Zm6.42,48H564l.61,1.53H549Zm2.75,6.11h15.89l.92,1.53H551.78Zm2.75,6.11h16.19l.61,1.53H554.53Zm2.75,6.11h16.19l.92,1.53H557.28ZM559.11,99h16.5l.61,1.53H560Zm2.75,6.11h16.5l.92,1.53h-16.5Zm2.75,6.11h16.8l.61,1.53h-16.5Zm2.75,6.11h16.8l.92,1.53h-16.8Zm19.86,6.11.61,1.53H571l-.92-1.53Zm2.75,6.11.92,1.53H573.47l-.92-1.53Zm3.05,6.11.61,1.53H576.22l-.92-1.53Zm2.75,6.11.92,1.53H579l-.92-1.53Zm3.05,6.11.61,1.53h-18l-.92-1.53Z"/><path class="cls-1" d="M637.08,9.46h47.36l71.18,108.76V9.46h44.61V192.77H753.48L682,84V192.77H637.08Zm33.61,174.76V55h4.58l85.24,129.23h28.41V18h-22V145.72h-5.5L677.41,18h-29v166.2ZM656.33,21.37h19.25l1.22,1.53H657.24Zm4.28,6.11h18.94L680.77,29H661.52Zm4,6.11h18.94l1.22,1.53H665.49Zm4.28,6.11h18.64l1.22,1.53H669.77Zm4,6.11h18.64l1.22,1.53H673.74Zm4.28,6.11h18.33l1.22,1.53H678Zm4,6.11h18.64l1.22,1.53H682Zm4,6.11h18.64l1.22,1.53H686Zm4.28,6.11h18.33l1.22,1.53H690.24Zm4,6.11h18.33l1.22,1.53H694.21Zm4,6.11H715.6L716.82,84H698.18Zm4,6.11h18.64l1.22,1.53H702.16Zm4,6.11h18.64l1.22,1.53H706.13Zm4,6.11h18.64l1.22,1.53H710.1Zm4.28,6.11h18.33l1.22,1.53H714.38Zm4,6.11h18.33l1.22,1.53H718.35Zm4,6.11h18.33l1.22,1.53H722.32Zm4,6.11H744l1.22,1.53H726.29ZM748,131.36l1.22,1.53H730.26l-.92-1.53Zm4,6.11,1.22,1.53H734.54l-.92-1.53Zm4,6.11,1.22,1.53H738.51l-.92-1.53Zm4.58,6.11,1.22,1.53H742.48l-.92-1.53Zm4.28,6.11,1.53,1.53H746.46l-.92-1.53Zm4.58,6.11,1.53,1.53H750.43l-.92-1.53ZM774,168l1.22,1.53H754.4l-.92-1.53Zm4.58,6.11,1.53,1.53H758.68l-.92-1.53Zm4.28,5.5,1.53,1.53H762l-.92-1.53Z"/></svg>