<svg id="Layer_1" data-name="Layer 1" xmlns="http://www.w3.org/2000/svg" viewBox="0 0 1000 240"><title>allan-sm</title><path d="M318.9,26h87.5c42.88,0,68,31.72,68,66.93,0,39-29.28,66.93-68,66.93H369.8v75.3H318.9Zm38,199.4v-75.3h50.2c31.72,0,54.38-24.75,54.38-58.21,0-30-19.52-56.12-54.38-56.12H331.8V225.43Zm0-166.28h46c19.87,0,31,15.34,31,33.12,0,19.17-11.15,33.46-31,33.46h-46Zm.35-19.52h52.29c3.84.35,8.72,1,12.2,1.74H357.25Zm0,7h76.34L436,48.35H357.25Zm0,7h85.41l1.74,1.74H357.25Zm0,76.69H444.4L442.66,132H357.25Zm0,7h79.13L433.24,139h-76Zm0,7h65.54a83.1,83.1,0,0,1-9.06,1.74H357.25ZM401.52,116c13.25,0,20.57-12.2,20.57-24.4,0-11.5-7-22-20.57-22H369.8V116Zm21.27,7.32h26.49L447.88,125H420Zm-.7-62.75h26.49L450,62.29H424.53Zm8,55.78h23l-1,1.74H428.71Zm-.7-48.8h23l.7,1.74H430.45Zm4.88,41.83h21.26l-.7,1.74H433.24Zm-.7-34.86H455.2l.7,1.74H434.64Zm2.44,7h20.92v1.74H436.73Zm.35,20.92H457.3l-.7,1.74H436Zm1-7H458l-.35,1v.7H437.08Zm0-7h20.22v1.74H437.43Z"/><path d="M493,26H565.9c61.7,0,109.46,45.32,109.46,104.23,0,55.77-42.53,104.93-109.46,104.93H493Zm72.86,199.4c58.91,0,96.56-44.62,96.56-95.17,0-53.33-42.18-94.47-96.56-94.47h-60V225.43ZM531.39,40.68h48.46l9.76,1.74H531.39Zm0,7h73.55l3.84,1.74H531.39Zm0,7h86.1l2.44,1.74H531.39Zm0,8h33.47c43.92,0,70.76,29.63,70.76,67.63,0,41.13-30.68,68-70.76,68H531.39Zm0,142.23h89.24l-2.44,1.74h-86.8Zm0,7h78.09l-3.84,1.74H531.39Zm0,7H590.3l-7,1.39H531.39Zm33.47-30.33c32.77,0,57.87-23,57.87-58.21,0-32.42-22-57.87-57.87-57.87H544.29V188.48Zm25.45,9.76H629l-1.39,1.39H585.77Zm36.6-137-.35-.35L629.35,63H592l-5.58-1.74ZM606,191.27h30.68L634.92,193H602.85ZM634.23,68.22,636,70H607.38l-2.79-1.74ZM615.75,184.3H641.9L640.5,186H613ZM640.5,75.19l1,1.39h-25.1l-1.74-1.39ZM622,177.67h24.05l-1.39,1.74h-24.4Zm-.7-95.86h23.36l1.39,1.74h-23Zm5.93,88.89h22.66l-1,1.74h-23Zm-.35-81.92h22l.7,1.74H628Zm4.18,75.3H652.7l-.7,1.39H630.39Zm-.35-68.67H652l.7,1.74H631.79Zm3.14,7h20.57l.7,1.74H634.92Zm.35,54.73h20.92l-.7,1.74H633.88Zm2.44-7h20.22l-.7,1.74H636Zm-.35-40.78h20.22l.35,1.39H636.67Zm1.39,6.62h19.87l.7,1.74H638.06Zm.35,27.54h20.22l-.7,1.74H637.71Zm.7-7h19.87v1.74H638.41Zm0-13.59h19.87v1.74H638.76Zm.35,6.62H659v1.74H639.11Z"/><path d="M762.43,19.06h9.06L874,235.19H818.9l-10.46-21.61H725.83l-10.11,21.61H660.64ZM706.31,225.43,764.87,99.24h4.88l57.87,126.19h28.24L767,37.89,678.77,225.43ZM701.77,184h19.17l-1,1.74H700.73Zm3.14-7h19.17l-1,1.74H704.21Zm3.49-7h18.82l-1,1.74H707.35Zm3.14-7h18.83l-1,1.74H710.84Zm3.49-7h18.82l-1,1.74H714Zm3.14-7H737l-1,1.74H717.46Zm3.14-7h18.82l-1,1.74H720.6Zm3.48-7h18.83l-1,1.74H723.74Zm3.14-7h18.82l-1,1.74H727.22Zm76.34,76-8-17.43H737.33l-7.67,17.43Zm-72.86-83h18.83l-1,1.74H730.36Zm3.14-7h18.83l-1,1.74H733.84Zm3.49-7h18.82l-1,1.74H737Zm0,90.64H794.5l.7,1.74H737.33Zm3.14-97.61H760l-1,1.74H740.47Zm0,90.64h50.55l1,1.74H740.47Zm49.5-14.29L767,124h-.7l-24.05,52.64Zm-46-83.31h44.27l1,1.74H743.61Zm3.14-7h38l.7,1.74H747.09Zm3.14-7H782.3l1,1.74H750.23Zm3.48-7h24.75l.7,1.74H753.37Zm3.14-7h18.13l1,1.74H756.85Zm3.48-7h11.5l.7,1.74H760Zm3.14-7h4.88l1,1.74h-6.62ZM767,45.56l.7,1.39h-1.39Zm7.32,54.73h18.13l.7,1.74H775.33Zm3.14,7h18.13l1,1.74H778.46Zm3.14,7H799l.7,1.74H781.6Zm3.14,7h18.48l1,1.74H784.74Zm3.14,7h18.82l.7,1.74H787.88Zm3.14,7h18.82l1,1.74H791Zm3.14,7h19.17l.7,1.74H794.15Zm3.14,7h19.17l1,1.74H797.29Zm22.66,7,.7,1.74H800.43l-1-1.74Zm3.14,7,1,1.74H803.22l-1-1.74Zm3.49,7,.7,1.74H806.35l-1-1.74Zm3.14,7,1,1.74H809.49l-1-1.74Zm3.49,7,.7,1.74H812.28l-1-1.74Z"/></svg>