<svg id="Layer_1" data-name="Layer 1" xmlns="http://www.w3.org/2000/svg" viewBox="0 0 1000 240"><title>pda-header</title><path d="M2.79,11.23H46.12c21.23,0,33.66,15.71,33.66,33.14,0,19.33-14.5,33.14-33.66,33.14H28v37.29H2.79ZM21.61,110V72.69H46.47c15.71,0,26.93-12.26,26.93-28.83,0-14.85-9.67-27.79-26.93-27.79H9.18V110Zm0-82.34H44.4c9.84,0,15.36,7.6,15.36,16.4,0,9.49-5.52,16.57-15.36,16.57H21.61ZM21.78,18H47.68c1.9.17,4.32.52,6,.86H21.78Zm0,3.45H59.59l1.21.86h-39Zm0,3.45H64.07l.86.86H21.78Zm0,38H64.94l-.86.86H21.78Zm0,3.45H61l-1.55.86H21.78Zm0,3.45H54.24a41,41,0,0,1-4.49.86h-28Zm21.92-14c6.56,0,10.19-6,10.19-12.08,0-5.7-3.45-10.87-10.19-10.87H28v23Zm10.53,3.63H67.35l-.69.86H52.85Zm-.34-31.07H67l.69.86H55.1Zm4,27.62H69.25l-.52.86H57.17Zm-.35-24.17H68.91l.34.86H58Zm2.42,20.71H70.46l-.35.86H59.41Zm-.34-17.26h10.7l.35.86H60.1Zm1.21,3.45H71.15v.86h-10ZM61,49H71.33L71,49.9H60.8Zm.52-3.45H71.67l-.17.52v.34H61.31Zm0-3.45h10V43h-10Z"/><path d="M82.8,11.23h25.38V52h40.57V11.23h25.2V114.81h-25.2V73.89H108.18v40.91H82.8Zm19,98.74V69.06h53.34V110h12.43V16.06H155.13V56.8H101.79V16.06H89.19V110ZM90.92,17.62h9.15v.86H90.92Zm0,3.45h9.15v.86H90.92Zm0,3.45h9.15v.86H90.92Zm0,3.45h9.15v.86H90.92Zm0,3.45h9.15v.86H90.92Zm0,3.45h9.15v.86H90.92Zm0,3.45h9.15v.86H90.92Zm0,3.45h9.15v.86H90.92Zm0,3.45h9.15v.86H90.92Zm0,3.45h9.15v.86H90.92Zm0,3.45h9.15V53H90.92Zm0,3.45h9.15v.86H90.92Zm0,3.45h74.92v.86H90.92Zm0,3.45h74.92v.86H90.92Zm0,3.45h74.92v.86H90.92Zm65.77-48.34h9.15v.86h-9.15Zm0,3.45h9.15v.86h-9.15Zm0,3.45h9.15v.86h-9.15Zm0,3.45h9.15v.86h-9.15Zm0,3.45h9.15v.86h-9.15Zm0,3.45h9.15v.86h-9.15Zm0,3.45h9.15v.86h-9.15Zm0,3.45h9.15v.86h-9.15Zm0,3.45h9.15v.86h-9.15Zm0,3.45h9.15v.86h-9.15Zm0,3.45h9.15V53h-9.15Zm0,3.45h9.15v.86h-9.15Z"/><path d="M179.88,11.23h25.38V93.06h45.05v21.75H179.88Zm64,98.74V97.89H198.87V16.06h-12.6V110ZM189.38,107H242.2v.86H188.51Zm3.63-3.45h49.2v.86H192.14Zm3.62-3.45H242.2V101H195.59Z"/><path d="M278.82,11.23H314.9c30.56,0,54.2,22.44,54.2,51.61,0,27.62-21.06,52-54.2,52H278.82ZM314.9,110c29.17,0,47.82-22.1,47.82-47.13,0-26.41-20.89-46.78-47.82-46.78H285.21V110ZM297.81,18.48h24l4.83.86H297.81Zm0,3.45h36.42l1.9.86H297.81Zm0,3.45h42.64l1.21.86H297.81Zm0,4h16.57c21.75,0,35,14.67,35,33.49,0,20.37-15.19,33.66-35,33.66H297.81Zm0,70.43H342l-1.21.86h-43Zm0,3.45h38.67l-1.9.86H297.81Zm0,3.45H327l-3.45.69H297.81Zm16.57-15c16.23,0,28.66-11.39,28.66-28.83,0-16.05-10.87-28.66-28.66-28.66H304.19V91.67ZM327,96.51h19.16l-.69.69H324.74Zm18.13-67.84-.17-.17,1.38,1H327.84l-2.76-.86ZM334.75,93.06h15.19l-.86.86H333.2Zm14-60.94.86.86H335.44l-1.38-.86ZM339.58,89.6h12.95l-.69.86H338.2Zm12.26-54,.52.69H339.93l-.86-.69Zm-9.15,50.75H354.6l-.69.86H341.83Zm-.35-47.47h11.57l.69.86H343.21Zm2.93,44H356.5l-.52.86H344.59Zm-.17-40.57H356l.34.86h-10.7Zm2.07,37.29h10.7l-.34.69h-10.7Zm-.17-34h10.53l.34.86H347.52ZM348.56,49h10.19l.34.86h-10Zm.17,27.1h10.36l-.34.86H348.56Zm1.21-3.45h10l-.35.86h-10Zm-.17-20.2h10l.17.69h-10Zm.69,3.28h9.84l.35.86h-10Zm.17,13.64h10l-.35.86h-9.84ZM351,66h9.84v.86h-10Zm0-6.73h9.84v.86H351Zm.17,3.28H361v.86h-9.84Z"/><path d="M373,11.23h68.53V33.67H398.33V52.32h39.88v22.1H398.33V93.06h45.06v21.75H373ZM437,110V97.89H391.95V69.58h39.88V57.15H391.95V28.84H435.1V16.06H379.35V110ZM382.45,107h52.82v.86H381.59Zm-.69-88.56h51.61v.86H382.63Zm3.45,3.45h48.16v.86h-47.3Zm.86,81.65h49.2v.86H385.21Zm2.59-78.2h44.71v.86H389.53Zm1,74.75h45.57V101H388.67Zm2.24-40.74H430.1v.86H391.95Zm0,3.45H430.1v.86H391.95Zm0,3.45H430.1v.86H391.95Z"/><path d="M471.23,84.42a10.79,10.79,0,0,0,10.7,10.88c6.39,0,10.36-3.63,10.36-9,0-7.77-10.19-10-18.64-12.95-17.43-6.21-27.1-14.33-27.1-32.11,0-18.3,15.71-33.49,35.22-33.49,23,0,33.83,14.67,35.22,33.83H493.16c0-5.87-3.62-10.7-10.7-10.7-5.52,0-10.88,3.28-10.88,10,0,7.77,9.5,9.15,18.3,11.74C508.35,58.18,517,68.54,517,84.77c0,18.3-15.54,33.49-35,33.49-22.61,0-35.39-15.19-35.39-33.83Zm10.7,29c16.05,0,29.17-12.95,29.17-28.65,0-17.44-10.36-23.82-26.24-28.31-10.18-2.93-19-5.35-19-15.54,0-9,6.73-14.85,16.05-14.85,10.7,0,14.33,6.39,15.88,10.7h12.95c-1-10.19-8.63-24.17-28.83-24.17-16.05,0-29.52,12.95-29.52,28.66,0,12.77,4.83,20.89,23.82,27.62C486.08,72.51,498,75.1,498,86.32c0,9.15-7.94,13.81-16.05,13.81-8.8-.17-14.33-5.18-15.88-10.87H452.59C452.94,102.2,465.54,113.42,481.94,113.42ZM454.14,39.37h10v.86h-10Zm0,3.45h10l.17.86H454.14Zm.69-7.08h10l-.34,1h-10Zm-.35,10.7h10.36l.35.86H454.66Zm.86,3.45h11.57l-.17-.17,1,1H455.52Zm.35-17.61h10.53l-.52.86H455.52Zm1.73-3.63h11.91l-1.21,1H456.91Zm-.35,24.86h14l1.38.86H457.6Zm2.59-28.31h15.19l-1.9.86H459ZM459.84,57h19.85l3.28.86H460.7Zm3.11-35.21h19v.86h-20Zm.86,38.67h27.1l2.59,1H465.71Zm4.32-42.29h13.81V19H466.75Zm30.21,45.92,1,.86H471.92l-1.38-.86Zm-20-49.37h3.62v.86h-7.77ZM503,67.51l.86,1H480.21l-2.59-1Zm-21.06,35.39h19.68l-.86.86H481.94Zm0,3.45h15.54l-1.21.86H481.94Zm0,3.62h8.8l-3.28.86h-5.52Zm24-38.84.34.86H489.53l-1.9-.86ZM492.47,99.27h12.26l-.52.69-.17.35H490.39Zm15-24.69.35.86h-12.6l-1-.86Zm-11,21.23h10.19l-.52.86H495.57Zm.86-17.61h11.39l.34.86H497.82Zm1.38,14h9.5l-.35,1h-9.67ZM499,81.66h10.19v.86h-10Zm.52,7.08H509l-.17.86h-9.49Zm.17-3.45h9.67l-.17.86h-9.5Z"/><path d="M526.44,11.23h25.38V114.81H526.44Zm19,98.74V16.06h-12.6V110ZM534.55,17.62h9.15v.86h-9.15Zm0,3.45h9.15v.86h-9.15Zm0,3.45h9.15v.86h-9.15Zm0,3.45h9.15v.86h-9.15Zm0,3.45h9.15v.86h-9.15Zm0,3.45h9.15v.86h-9.15Zm0,3.45h9.15v.86h-9.15Zm0,3.45h9.15v.86h-9.15Zm0,3.45h9.15v.86h-9.15Zm0,3.45h9.15v.86h-9.15Zm0,3.45h9.15V53h-9.15Zm0,3.45h9.15v.86h-9.15Zm0,3.45h9.15v.86h-9.15Zm0,3.45h9.15v.86h-9.15Zm0,3.45h9.15v.86h-9.15Z"/><path d="M614.32,7.78c19.16,0,32.45,7.08,43.33,18.13L640,42.13c-7.08-6.39-15.88-10.36-25.72-10.36-18.47,0-30.38,13.81-30.38,31.24,0,19.16,13.64,31.25,30.9,31.25,18.13,0,26.93-10,27.62-20H612.94V52.32h57v9.84c0,30.55-18,56.1-55.58,56.1-32.8,0-56.1-24.34-56.1-55.24S581.52,7.78,614.32,7.78Zm0,105.65c33.32,0,49.2-21.58,49.2-50.23v-6H619.32V69.41h30c-.17,14.15-10.7,29.69-35,29.69C592,99.1,577.37,83.22,577.37,63S592,26.94,614.32,26.94a45.42,45.42,0,0,1,25.38,8.29l10-9.67c-9-8.46-20.54-12.95-35.39-12.95-28.83,0-49.72,22.27-49.72,50.41S585.49,113.42,614.32,113.42ZM566.5,59.22h9.32l-.17.86h-9.32Zm-.17,3.45h9.32v.86h-9.32Zm0,3.45h9.32l.17.86H566.5Zm.52-10.36h9.49l-.34.86h-9.32Zm-.17,13.81H576l.34.86h-9.49Zm.69-17.26H577l-.34.86h-9.5ZM567.19,73h9.5l.34.86h-9.5Zm.86,3.45h9.67l.34.86h-9.84Zm1,3.45h10l.52.86H569.26Zm1.21,3.45H581l.69.86H570.81ZM572,86.84h11.39l.86.86H572.54Zm2.07,3.45h12.43l.86.86H574.61Zm2.59,3.45h13.81l1,.86H577.2Zm19.85,3.45,1.73.86H580.48l-.86-.86Zm12.08,3.45a52.92,52.92,0,0,0,5.7.35,44.48,44.48,0,0,0,5.52-.35h27.1l-1,.86H584.63l-1-.86Zm34,3.45-1.21.86H589.63l-1.21-.86Zm-6.39,3.45-2.24.86H596.71l-2.24-.86Zm-14,3.45a36.54,36.54,0,0,1-7.94.52,60.09,60.09,0,0,1-8.11-.52Zm-.69-51.79h39.88v.86H621.57Zm0,3.45h39.88v.86H621.57Zm0,3.45h39.88V67H621.57ZM632.79,97.2h18l-.86.86H631.06Zm6.56-3.45h14l-.69.86H638Zm3.8-3.45h12.08l-.69.86H642.28Zm2.94-3.45h10.7l-.52.86h-11Zm1.9-3.45h10.36l-.52.86H647.29Zm1.38-3.45h9.84l-.34.86H649Zm1.21-3.45h9.49l-.34.86h-9.32Zm.69-3.45h9.32l-.17.86h-9.5Zm.35-3.45h9.32v.86h-9.5Z"/><path d="M676.35,11.23h26.76l40.22,61.45V11.23h25.2V114.81H742.12l-40.4-61.45v61.45H676.35Zm19,98.74V37h2.59l48.16,73h16.05V16.06H749.72V88.22h-3.11L699.14,16.06h-16.4V110Zm-8.11-92H698.1l.69.86h-11Zm2.42,3.45h10.7l.69.86H690.16Zm2.24,3.45h10.7l.69.86H692.4Zm2.42,3.45h10.53l.69.86h-10.7Zm2.24,3.45h10.53l.69.86h-10.7ZM699,35.23h10.36l.69.86H699.48Zm2.24,3.45h10.53l.69.86h-10.7Zm2.24,3.45H714l.69.86H704Zm2.42,3.45h10.36l.69.86H706.39ZM708.11,49h10.36l.69.86H708.63Zm2.24,3.45h10.36l.69.86H710.88Zm2.24,3.45h10.53l.69.86h-10.7Zm2.24,3.45h10.53l.69.86h-10.7Zm2.24,3.45h10.53l.69.86h-10.7Zm2.42,3.45h10.36l.69.86H720Zm2.24,3.45h10.36l.69.86H722.27ZM724,73.2h10.36l.69.86H724.51Zm2.24,3.45h10.53l.69.86h-10.7ZM739,80.11l.69.86H729l-.52-.86Zm2.24,3.45.69.86H731.42l-.52-.86ZM743.5,87l.69.86H733.66l-.52-.86Zm2.59,3.45.69.86H735.9l-.52-.86Zm2.42,3.45.86.86H738.15l-.52-.86Zm2.59,3.45.86.86H740.39l-.52-.86Zm2.59,3.45.69.86H742.64l-.52-.86Zm2.59,3.45.86.86H745.06l-.52-.86Zm2.42,3.11.86.86H747l-.52-.86Z"/></svg>